ffmpeg started on 2026-01-18 at 20:03:39
Report written to "C:\Dev\OSPanel\domains\Java-AT\modules\ffmpeg\FFMetrics\reports\psnr_report-6.txt"
Log level: 32
Command line:
ffmpeg -hide_banner -nostdin -r 24000/1001 -i "F:\\Convert\\files\\[DC] Make Heroine ga Oosugiru - 07_Telegram_HEVC(154).mkv" -r 24000/1001 -i "F:\\Convert\\files\\[DC] Make Heroine ga Oosugiru - 07_Telegram.mp4" -lavfi "[0:v]settb=AVTB,setpts=PTS-STARTPTS,format=pix_fmts=yuv420p10le,fps=24000/1001,scale=1920:1080:flags=lanczos:param0=3:out_range=limited:out_color_matrix=bt709:out_chroma_loc=left,setsar=1/1,setdar=(1920/1080)*(1/1),colorspace=format=yuv420p10:range=tv:primaries=bt709:trc=bt709:space=bt709:fast=0[main];[1:v]settb=AVTB,setpts=PTS-STARTPTS,format=pix_fmts=yuv420p,fps=24000/1001,scale=1920:1080:flags=lanczos:param0=3:out_range=limited:out_color_matrix=bt709:out_chroma_loc=left,setsar=1.000,setdar=1.778,colorspace=format=yuv420p:range=tv:primaries=bt709:trc=bt709:space=bt709:fast=0[ref];[main][ref]psnr=eof_action=endall:stats_file='C\\:/Dev/OSPanel/domains/Java-AT/modules/ffmpeg/FFMetrics/logs/psnr_logfile-6.txt'" -f null -
Input #0, matroska,webm, from 'F:\Convert\files\[DC] Make Heroine ga Oosugiru - 07_Telegram_HEVC(154).mkv':
  Metadata:
    COMPATIBLE_BRANDS: isomiso2avc1mp41
    MAJOR_BRAND     : isom
    MINOR_VERSION   : 512
    ENCODER         : Lavf61.7.100
  Duration: 00:24:06.79, start: -0.021000, bitrate: 980 kb/s
  Stream #0:0: Video: hevc (Main 10), yuv420p10le(tv, bt709, progressive), 1920x1080 [SAR 1:1 DAR 16:9], 23.98 fps, 23.98 tbr, 1k tbn (default)
      Metadata:
        HANDLER_NAME    : VideoHandler
        VENDOR_ID       : [0][0][0][0]
        ENCODER         : Lavc61.19.100 libx265
        BPS             : 783673
        DURATION        : 00:24:06.569708333
        NUMBER_OF_FRAMES: 34683
        NUMBER_OF_BYTES : 141704713
        _STATISTICS_WRITING_APP: mkvpropedit v94.0 ('Initiate') 64-bit
        _STATISTICS_WRITING_DATE_UTC: 2026-01-17 16:59:20
        _STATISTICS_TAGS: BPS DURATION NUMBER_OF_FRAMES NUMBER_OF_BYTES
  Stream #0:1: Audio: aac (LC), 48000 Hz, stereo, fltp (default)
      Metadata:
        HANDLER_NAME    : SoundHandler
        VENDOR_ID       : [0][0][0][0]
        ENCODER         : Lavc61.19.100 aac
        BPS             : 193194
        DURATION        : 00:24:06.784000000
        NUMBER_OF_FRAMES: 67819
        NUMBER_OF_BYTES : 34938755
        _STATISTICS_WRITING_APP: mkvpropedit v94.0 ('Initiate') 64-bit
        _STATISTICS_WRITING_DATE_UTC: 2026-01-17 16:59:20
        _STATISTICS_TAGS: BPS DURATION NUMBER_OF_FRAMES NUMBER_OF_BYTES
Input #1, mov,mp4,m4a,3gp,3g2,mj2, from 'F:\Convert\files\[DC] Make Heroine ga Oosugiru - 07_Telegram.mp4':
  Metadata:
    major_brand     : isom
    minor_version   : 512
    compatible_brands: isomiso2avc1mp41
    encoder         : Lavf60.16.100
  Duration: 00:24:06.74, start: 0.000000, bitrate: 3764 kb/s
  Stream #1:0[0x1](und): Video: h264 (High) (avc1 / 0x31637661), yuv420p(tv, bt709, progressive), 1920x1080 [SAR 1:1 DAR 16:9], 3616 kb/s, 23.98 fps, 23.98 tbr, 24k tbn (default)
      Metadata:
        handler_name    : VideoHandler
        vendor_id       : [0][0][0][0]
        encoder         : Lavc60.31.102 h264_qsv
  Stream #1:1[0x2](und): Audio: aac (HE-AACv2) (mp4a / 0x6134706D), 48000 Hz, stereo, fltp, 144 kb/s (default)
      Metadata:
        handler_name    : SoundHandler
        vendor_id       : [0][0][0][0]
Stream mapping:
  Stream #0:0 (hevc) -> settb:default
  Stream #1:0 (h264) -> settb:default
  psnr:default -> Stream #0:0 (wrapped_avframe)
  Stream #0:1 -> #0:1 (aac (native) -> pcm_s16le (native))
Output #0, null, to 'pipe:':
  Metadata:
    COMPATIBLE_BRANDS: isomiso2avc1mp41
    MAJOR_BRAND     : isom
    MINOR_VERSION   : 512
    encoder         : Lavf61.7.100
  Stream #0:0: Video: wrapped_avframe, yuv420p10le(tv, bt709, progressive), 1920x1080 [SAR 1:1 DAR 16:9], q=2-31, 200 kb/s, 23.98 fps, 23.98 tbn
      Metadata:
        encoder         : Lavc61.19.100 wrapped_avframe
  Stream #0:1: Audio: pcm_s16le, 48000 Hz, stereo, s16, 1536 kb/s (default)
      Metadata:
        HANDLER_NAME    : SoundHandler
        VENDOR_ID       : [0][0][0][0]
        _STATISTICS_TAGS: BPS DURATION NUMBER_OF_FRAMES NUMBER_OF_BYTES
        BPS             : 193194
        DURATION        : 00:24:06.784000000
        NUMBER_OF_FRAMES: 67819
        NUMBER_OF_BYTES : 34938755
        _STATISTICS_WRITING_APP: mkvpropedit v94.0 ('Initiate') 64-bit
        _STATISTICS_WRITING_DATE_UTC: 2026-01-17 16:59:20
        encoder         : Lavc61.19.100 pcm_s16le
frame=  124 fps=0.0 q=-0.0 size=N/A time=00:00:05.17 bitrate=N/A speed=10.3x    frame=  328 fps=318 q=-0.0 size=N/A time=00:00:13.68 bitrate=N/A speed=13.3x    frame=  526 fps=341 q=-0.0 size=N/A time=00:00:21.93 bitrate=N/A speed=14.2x    frame=  719 fps=350 q=-0.0 size=N/A time=00:00:29.98 bitrate=N/A speed=14.6x    frame=  900 fps=351 q=-0.0 size=N/A time=00:00:37.53 bitrate=N/A speed=14.6x    frame= 1048 fps=339 q=-0.0 size=N/A time=00:00:43.71 bitrate=N/A speed=14.1x    frame= 1205 fps=334 q=-0.0 size=N/A time=00:00:50.25 bitrate=N/A speed=13.9x    frame= 1366 fps=332 q=-0.0 size=N/A time=00:00:56.97 bitrate=N/A speed=13.8x    frame= 1523 fps=329 q=-0.0 size=N/A time=00:01:03.52 bitrate=N/A speed=13.7x    frame= 1670 fps=324 q=-0.0 size=N/A time=00:01:09.65 bitrate=N/A speed=13.5x    frame= 1830 fps=323 q=-0.0 size=N/A time=00:01:16.32 bitrate=N/A speed=13.5x    frame= 1999 fps=324 q=-0.0 size=N/A time=00:01:23.37 bitrate=N/A speed=13.5x    frame= 2103 fps=314 q=-0.0 size=N/A time=00:01:27.71 bitrate=N/A speed=13.1x    frame= 2262 fps=313 q=-0.0 size=N/A time=00:01:34.34 bitrate=N/A speed=13.1x    frame= 2405 fps=311 q=-0.0 size=N/A time=00:01:40.30 bitrate=N/A speed=  13x    frame= 2526 fps=307 q=-0.0 size=N/A time=00:01:45.35 bitrate=N/A speed=12.8x    frame= 2694 fps=307 q=-0.0 size=N/A time=00:01:52.36 bitrate=N/A speed=12.8x    frame= 2858 fps=308 q=-0.0 size=N/A time=00:01:59.20 bitrate=N/A speed=12.8x    frame= 3036 fps=310 q=-0.0 size=N/A time=00:02:06.62 bitrate=N/A speed=12.9x    frame= 3231 fps=314 q=-0.0 size=N/A time=00:02:14.75 bitrate=N/A speed=13.1x    frame= 3435 fps=317 q=-0.0 size=N/A time=00:02:23.26 bitrate=N/A speed=13.2x    frame= 3625 fps=320 q=-0.0 size=N/A time=00:02:31.19 bitrate=N/A speed=13.3x    frame= 3829 fps=323 q=-0.0 size=N/A time=00:02:39.70 bitrate=N/A speed=13.5x    frame= 4027 fps=326 q=-0.0 size=N/A time=00:02:47.95 bitrate=N/A speed=13.6x    frame= 4230 fps=328 q=-0.0 size=N/A time=00:02:56.42 bitrate=N/A speed=13.7x    frame= 4438 fps=331 q=-0.0 size=N/A time=00:03:05.10 bitrate=N/A speed=13.8x    frame= 4644 fps=334 q=-0.0 size=N/A time=00:03:13.69 bitrate=N/A speed=13.9x    frame= 4845 fps=336 q=-0.0 size=N/A time=00:03:22.07 bitrate=N/A speed=  14x    frame= 5045 fps=338 q=-0.0 size=N/A time=00:03:30.41 bitrate=N/A speed=14.1x    frame= 5249 fps=339 q=-0.0 size=N/A time=00:03:38.92 bitrate=N/A speed=14.2x    frame= 5448 fps=341 q=-0.0 size=N/A time=00:03:47.22 bitrate=N/A speed=14.2x    frame= 5651 fps=343 q=-0.0 size=N/A time=00:03:55.69 bitrate=N/A speed=14.3x    frame= 5846 fps=344 q=-0.0 size=N/A time=00:04:03.82 bitrate=N/A speed=14.3x    frame= 6036 fps=344 q=-0.0 size=N/A time=00:04:11.75 bitrate=N/A speed=14.4x    frame= 6227 fps=345 q=-0.0 size=N/A time=00:04:19.71 bitrate=N/A speed=14.4x    frame= 6413 fps=346 q=-0.0 size=N/A time=00:04:27.47 bitrate=N/A speed=14.4x    frame= 6617 fps=347 q=-0.0 size=N/A time=00:04:35.98 bitrate=N/A speed=14.5x    frame= 6819 fps=348 q=-0.0 size=N/A time=00:04:44.40 bitrate=N/A speed=14.5x    frame= 7018 fps=349 q=-0.0 size=N/A time=00:04:52.70 bitrate=N/A speed=14.6x    frame= 7210 fps=350 q=-0.0 size=N/A time=00:05:00.71 bitrate=N/A speed=14.6x    frame= 7409 fps=351 q=-0.0 size=N/A time=00:05:09.01 bitrate=N/A speed=14.6x    frame= 7601 fps=351 q=-0.0 size=N/A time=00:05:17.02 bitrate=N/A speed=14.6x    frame= 7793 fps=352 q=-0.0 size=N/A time=00:05:25.03 bitrate=N/A speed=14.7x    frame= 7983 fps=352 q=-0.0 size=N/A time=00:05:32.95 bitrate=N/A speed=14.7x    frame= 8190 fps=353 q=-0.0 size=N/A time=00:05:41.59 bitrate=N/A speed=14.7x    frame= 8390 fps=354 q=-0.0 size=N/A time=00:05:49.93 bitrate=N/A speed=14.8x    frame= 8592 fps=355 q=-0.0 size=N/A time=00:05:58.35 bitrate=N/A speed=14.8x    frame= 8799 fps=356 q=-0.0 size=N/A time=00:06:06.99 bitrate=N/A speed=14.8x    frame= 9001 fps=356 q=-0.0 size=N/A time=00:06:15.41 bitrate=N/A speed=14.9x    frame= 9205 fps=357 q=-0.0 size=N/A time=00:06:23.92 bitrate=N/A speed=14.9x    frame= 9408 fps=358 q=-0.0 size=N/A time=00:06:32.39 bitrate=N/A speed=14.9x    frame= 9611 fps=359 q=-0.0 size=N/A time=00:06:40.85 bitrate=N/A speed=  15x    frame= 9815 fps=359 q=-0.0 size=N/A time=00:06:49.36 bitrate=N/A speed=  15x    frame=10018 fps=360 q=-0.0 size=N/A time=00:06:57.83 bitrate=N/A speed=  15x    frame=10219 fps=360 q=-0.0 size=N/A time=00:07:06.21 bitrate=N/A speed=  15x    frame=10420 fps=361 q=-0.0 size=N/A time=00:07:14.60 bitrate=N/A speed=15.1x    frame=10614 fps=361 q=-0.0 size=N/A time=00:07:22.69 bitrate=N/A speed=15.1x    frame=10819 fps=362 q=-0.0 size=N/A time=00:07:31.24 bitrate=N/A speed=15.1x    frame=11031 fps=363 q=-0.0 size=N/A time=00:07:40.08 bitrate=N/A speed=15.1x    frame=11233 fps=363 q=-0.0 size=N/A time=00:07:48.50 bitrate=N/A speed=15.1x    frame=11436 fps=364 q=-0.0 size=N/A time=00:07:56.97 bitrate=N/A speed=15.2x    frame=11649 fps=364 q=-0.0 size=N/A time=00:08:05.86 bitrate=N/A speed=15.2x    frame=11853 fps=365 q=-0.0 size=N/A time=00:08:14.36 bitrate=N/A speed=15.2x    frame=12065 fps=366 q=-0.0 size=N/A time=00:08:23.21 bitrate=N/A speed=15.3x    frame=12269 fps=366 q=-0.0 size=N/A time=00:08:31.71 bitrate=N/A speed=15.3x    frame=12479 fps=367 q=-0.0 size=N/A time=00:08:40.47 bitrate=N/A speed=15.3x    frame=12681 fps=367 q=-0.0 size=N/A time=00:08:48.90 bitrate=N/A speed=15.3x    frame=12891 fps=368 q=-0.0 size=N/A time=00:08:57.66 bitrate=N/A speed=15.3x    frame=13093 fps=368 q=-0.0 size=N/A time=00:09:06.08 bitrate=N/A speed=15.4x    frame=13298 fps=368 q=-0.0 size=N/A time=00:09:14.63 bitrate=N/A speed=15.4x    frame=13493 fps=369 q=-0.0 size=N/A time=00:09:22.77 bitrate=N/A speed=15.4x    frame=13695 fps=369 q=-0.0 size=N/A time=00:09:31.19 bitrate=N/A speed=15.4x    frame=13896 fps=369 q=-0.0 size=N/A time=00:09:39.57 bitrate=N/A speed=15.4x    frame=14090 fps=369 q=-0.0 size=N/A time=00:09:47.67 bitrate=N/A speed=15.4x    frame=14272 fps=369 q=-0.0 size=N/A time=00:09:55.26 bitrate=N/A speed=15.4x    frame=14484 fps=370 q=-0.0 size=N/A time=00:10:04.10 bitrate=N/A speed=15.4x    frame=14683 fps=370 q=-0.0 size=N/A time=00:10:12.40 bitrate=N/A speed=15.4x    frame=14893 fps=370 q=-0.0 size=N/A time=00:10:21.16 bitrate=N/A speed=15.4x    frame=15088 fps=370 q=-0.0 size=N/A time=00:10:29.29 bitrate=N/A speed=15.5x    frame=15268 fps=370 q=-0.0 size=N/A time=00:10:36.80 bitrate=N/A speed=15.4x    frame=15467 fps=370 q=-0.0 size=N/A time=00:10:45.10 bitrate=N/A speed=15.4x    frame=15680 fps=371 q=-0.0 size=N/A time=00:10:53.98 bitrate=N/A speed=15.5x    frame=15888 fps=371 q=-0.0 size=N/A time=00:11:02.66 bitrate=N/A speed=15.5x    frame=16094 fps=372 q=-0.0 size=N/A time=00:11:11.25 bitrate=N/A speed=15.5x    frame=16308 fps=372 q=-0.0 size=N/A time=00:11:20.17 bitrate=N/A speed=15.5x    frame=16507 fps=372 q=-0.0 size=N/A time=00:11:28.47 bitrate=N/A speed=15.5x    frame=16715 fps=373 q=-0.0 size=N/A time=00:11:37.15 bitrate=N/A speed=15.5x    frame=16919 fps=373 q=-0.0 size=N/A time=00:11:45.66 bitrate=N/A speed=15.6x    frame=17110 fps=373 q=-0.0 size=N/A time=00:11:53.62 bitrate=N/A speed=15.6x    frame=17330 fps=373 q=-0.0 size=N/A time=00:12:02.80 bitrate=N/A speed=15.6x    frame=17530 fps=374 q=-0.0 size=N/A time=00:12:11.14 bitrate=N/A speed=15.6x    frame=17728 fps=374 q=-0.0 size=N/A time=00:12:19.40 bitrate=N/A speed=15.6x    frame=17920 fps=374 q=-0.0 size=N/A time=00:12:27.41 bitrate=N/A speed=15.6x    frame=18140 fps=374 q=-0.0 size=N/A time=00:12:36.58 bitrate=N/A speed=15.6x    frame=18324 fps=374 q=-0.0 size=N/A time=00:12:44.26 bitrate=N/A speed=15.6x    frame=18522 fps=374 q=-0.0 size=N/A time=00:12:52.52 bitrate=N/A speed=15.6x    frame=18718 fps=374 q=-0.0 size=N/A time=00:13:00.69 bitrate=N/A speed=15.6x    frame=18918 fps=374 q=-0.0 size=N/A time=00:13:09.03 bitrate=N/A speed=15.6x    frame=19116 fps=374 q=-0.0 size=N/A time=00:13:17.29 bitrate=N/A speed=15.6x    frame=19308 fps=375 q=-0.0 size=N/A time=00:13:25.30 bitrate=N/A speed=15.6x    frame=19512 fps=375 q=-0.0 size=N/A time=00:13:33.81 bitrate=N/A speed=15.6x    frame=19721 fps=375 q=-0.0 size=N/A time=00:13:42.53 bitrate=N/A speed=15.6x    frame=19924 fps=375 q=-0.0 size=N/A time=00:13:50.99 bitrate=N/A speed=15.6x    frame=20130 fps=375 q=-0.0 size=N/A time=00:13:59.58 bitrate=N/A speed=15.7x    frame=20343 fps=376 q=-0.0 size=N/A time=00:14:08.47 bitrate=N/A speed=15.7x    frame=20524 fps=376 q=-0.0 size=N/A time=00:14:16.02 bitrate=N/A speed=15.7x    frame=20708 fps=375 q=-0.0 size=N/A time=00:14:23.69 bitrate=N/A speed=15.7x    frame=20924 fps=376 q=-0.0 size=N/A time=00:14:32.70 bitrate=N/A speed=15.7x    frame=21126 fps=376 q=-0.0 size=N/A time=00:14:41.13 bitrate=N/A speed=15.7x    frame=21329 fps=376 q=-0.0 size=N/A time=00:14:49.59 bitrate=N/A speed=15.7x    frame=21536 fps=376 q=-0.0 size=N/A time=00:14:58.23 bitrate=N/A speed=15.7x    frame=21744 fps=377 q=-0.0 size=N/A time=00:15:06.90 bitrate=N/A speed=15.7x    frame=21956 fps=377 q=-0.0 size=N/A time=00:15:15.74 bitrate=N/A speed=15.7x    frame=22168 fps=377 q=-0.0 size=N/A time=00:15:24.59 bitrate=N/A speed=15.7x    frame=22384 fps=378 q=-0.0 size=N/A time=00:15:33.59 bitrate=N/A speed=15.7x    frame=22592 fps=378 q=-0.0 size=N/A time=00:15:42.27 bitrate=N/A speed=15.8x    frame=22798 fps=378 q=-0.0 size=N/A time=00:15:50.86 bitrate=N/A speed=15.8x    frame=22997 fps=378 q=-0.0 size=N/A time=00:15:59.16 bitrate=N/A speed=15.8x    frame=23206 fps=378 q=-0.0 size=N/A time=00:16:07.88 bitrate=N/A speed=15.8x    frame=23415 fps=379 q=-0.0 size=N/A time=00:16:16.60 bitrate=N/A speed=15.8x    frame=23633 fps=379 q=-0.0 size=N/A time=00:16:25.69 bitrate=N/A speed=15.8x    frame=23835 fps=379 q=-0.0 size=N/A time=00:16:34.11 bitrate=N/A speed=15.8x    frame=24036 fps=379 q=-0.0 size=N/A time=00:16:42.50 bitrate=N/A speed=15.8x    frame=24237 fps=379 q=-0.0 size=N/A time=00:16:50.88 bitrate=N/A speed=15.8x    frame=24445 fps=379 q=-0.0 size=N/A time=00:16:59.56 bitrate=N/A speed=15.8x    frame=24650 fps=379 q=-0.0 size=N/A time=00:17:08.11 bitrate=N/A speed=15.8x    frame=24859 fps=380 q=-0.0 size=N/A time=00:17:16.82 bitrate=N/A speed=15.8x    frame=25067 fps=380 q=-0.0 size=N/A time=00:17:25.50 bitrate=N/A speed=15.8x    frame=25265 fps=380 q=-0.0 size=N/A time=00:17:33.76 bitrate=N/A speed=15.8x    frame=25474 fps=380 q=-0.0 size=N/A time=00:17:42.47 bitrate=N/A speed=15.9x    frame=25685 fps=380 q=-0.0 size=N/A time=00:17:51.27 bitrate=N/A speed=15.9x    frame=25892 fps=380 q=-0.0 size=N/A time=00:17:59.91 bitrate=N/A speed=15.9x    frame=26094 fps=381 q=-0.0 size=N/A time=00:18:08.33 bitrate=N/A speed=15.9x    frame=26294 fps=381 q=-0.0 size=N/A time=00:18:16.67 bitrate=N/A speed=15.9x    frame=26504 fps=381 q=-0.0 size=N/A time=00:18:25.43 bitrate=N/A speed=15.9x    frame=26717 fps=381 q=-0.0 size=N/A time=00:18:34.32 bitrate=N/A speed=15.9x    frame=26920 fps=381 q=-0.0 size=N/A time=00:18:42.78 bitrate=N/A speed=15.9x    frame=27103 fps=381 q=-0.0 size=N/A time=00:18:50.42 bitrate=N/A speed=15.9x    frame=27301 fps=381 q=-0.0 size=N/A time=00:18:58.67 bitrate=N/A speed=15.9x    frame=27488 fps=381 q=-0.0 size=N/A time=00:19:06.47 bitrate=N/A speed=15.9x    frame=27686 fps=381 q=-0.0 size=N/A time=00:19:14.73 bitrate=N/A speed=15.9x    frame=27884 fps=381 q=-0.0 size=N/A time=00:19:22.99 bitrate=N/A speed=15.9x    frame=28080 fps=381 q=-0.0 size=N/A time=00:19:31.17 bitrate=N/A speed=15.9x    frame=28285 fps=381 q=-0.0 size=N/A time=00:19:39.72 bitrate=N/A speed=15.9x    frame=28482 fps=381 q=-0.0 size=N/A time=00:19:47.93 bitrate=N/A speed=15.9x    frame=28676 fps=381 q=-0.0 size=N/A time=00:19:56.02 bitrate=N/A speed=15.9x    frame=28863 fps=381 q=-0.0 size=N/A time=00:20:03.82 bitrate=N/A speed=15.9x    frame=29035 fps=381 q=-0.0 size=N/A time=00:20:11.00 bitrate=N/A speed=15.9x    frame=29228 fps=380 q=-0.0 size=N/A time=00:20:19.05 bitrate=N/A speed=15.9x    frame=29423 fps=380 q=-0.0 size=N/A time=00:20:27.18 bitrate=N/A speed=15.9x    frame=29603 fps=380 q=-0.0 size=N/A time=00:20:34.69 bitrate=N/A speed=15.9x    frame=29780 fps=380 q=-0.0 size=N/A time=00:20:42.07 bitrate=N/A speed=15.8x    frame=29964 fps=380 q=-0.0 size=N/A time=00:20:49.74 bitrate=N/A speed=15.8x    frame=30136 fps=380 q=-0.0 size=N/A time=00:20:56.92 bitrate=N/A speed=15.8x    frame=30326 fps=379 q=-0.0 size=N/A time=00:21:04.84 bitrate=N/A speed=15.8x    frame=30530 fps=380 q=-0.0 size=N/A time=00:21:13.35 bitrate=N/A speed=15.8x    frame=30731 fps=380 q=-0.0 size=N/A time=00:21:21.73 bitrate=N/A speed=15.8x    frame=30942 fps=380 q=-0.0 size=N/A time=00:21:30.53 bitrate=N/A speed=15.8x    frame=31137 fps=380 q=-0.0 size=N/A time=00:21:38.67 bitrate=N/A speed=15.8x    frame=31338 fps=380 q=-0.0 size=N/A time=00:21:47.05 bitrate=N/A speed=15.8x    frame=31540 fps=380 q=-0.0 size=N/A time=00:21:55.48 bitrate=N/A speed=15.8x    frame=31742 fps=380 q=-0.0 size=N/A time=00:22:03.90 bitrate=N/A speed=15.8x    frame=31932 fps=380 q=-0.0 size=N/A time=00:22:11.83 bitrate=N/A speed=15.8x    frame=32122 fps=380 q=-0.0 size=N/A time=00:22:19.75 bitrate=N/A speed=15.8x    frame=32337 fps=380 q=-0.0 size=N/A time=00:22:28.72 bitrate=N/A speed=15.9x    frame=32539 fps=380 q=-0.0 size=N/A time=00:22:37.14 bitrate=N/A speed=15.9x    frame=32706 fps=380 q=-0.0 size=N/A time=00:22:44.11 bitrate=N/A speed=15.8x    frame=32867 fps=379 q=-0.0 size=N/A time=00:22:50.82 bitrate=N/A speed=15.8x    frame=33061 fps=379 q=-0.0 size=N/A time=00:22:58.91 bitrate=N/A speed=15.8x    frame=33254 fps=379 q=-0.0 size=N/A time=00:23:06.96 bitrate=N/A speed=15.8x    frame=33436 fps=379 q=-0.0 size=N/A time=00:23:14.55 bitrate=N/A speed=15.8x    frame=33587 fps=379 q=-0.0 size=N/A time=00:23:20.85 bitrate=N/A speed=15.8x    frame=33745 fps=378 q=-0.0 size=N/A time=00:23:27.44 bitrate=N/A speed=15.8x    frame=33879 fps=378 q=-0.0 size=N/A time=00:23:33.03 bitrate=N/A speed=15.7x    frame=34042 fps=377 q=-0.0 size=N/A time=00:23:39.83 bitrate=N/A speed=15.7x    frame=34210 fps=377 q=-0.0 size=N/A time=00:23:46.84 bitrate=N/A speed=15.7x    frame=34361 fps=376 q=-0.0 size=N/A time=00:23:53.14 bitrate=N/A speed=15.7x    frame=34506 fps=376 q=-0.0 size=N/A time=00:23:59.18 bitrate=N/A speed=15.7x    [Parsed_psnr_16 @ 000001c8f0b42a00] PSNR y:48.953074 u:50.332581 v:50.383070 average:49.372764 min:38.015904 max:inf
[out#0/null @ 000001c8e3973a00] video:14903KiB audio:271276KiB subtitle:0KiB other streams:0KiB global headers:0KiB muxing overhead: unknown
frame=34683 fps=376 q=-0.0 Lsize=N/A time=00:24:06.57 bitrate=N/A speed=15.7x    
